<svg width="28" height="28" viewBox="0 0 28 28" fill="none" xmlns="http://www.w3.org/2000/svg">
<path d="M21.784 14.7002V17.5122C21.784 20.2736 19.5455 22.5122 16.784 22.5122H11.16C8.39861 22.5122 6.16003 20.2736 6.16003 17.5122V11.8882C6.16003 9.12676 8.39861 6.88818 11.16 6.88818H13.972" stroke="#F4F4F4" stroke-width="2" stroke-linecap="round"/>
<path d="M18.2748 6.45532C19.0553 5.67368 20.3212 5.6732 21.1022 6.45425L22.0238 7.37581C22.7981 8.1502 22.8062 9.40384 22.0418 10.1881L16.2123 16.1692C15.6479 16.7483 14.8738 17.0748 14.0654 17.0748L12.9655 17.0748C12.1127 17.0747 11.4316 16.3638 11.4675 15.5111L11.5166 14.3427C11.5482 13.5914 11.8605 12.8794 12.3915 12.3476L18.2748 6.45532Z" stroke="#F4F4F4" stroke-width="2"/>
<path d="M17.2095 7.64208L20.6936 11.1262" stroke="#F4F4F4" stroke-width="2" stroke-linecap="round" stroke-linejoin="round"/>
</svg>
