<svg width="28" height="28" viewBox="0 0 28 28" fill="none" xmlns="http://www.w3.org/2000/svg">
<path d="M14.0624 3.65216L14.0625 2.65216H14.0624V3.65216ZM18.4443 6.51154L17.9441 7.37748L17.9443 7.37756L18.4443 6.51154ZM21.8505 13.3895L20.8505 13.3894V13.3895H21.8505ZM18.4433 20.2635L17.9434 19.3974L17.9433 19.3975L18.4433 20.2635ZM14.0624 23.1277L14.0624 24.1277L14.0625 24.1277L14.0624 23.1277ZM9.68256 20.2635L10.1827 19.3975L10.1826 19.3975L9.68256 20.2635ZM6.27435 13.3895L7.27435 13.3895L7.27435 13.3894L6.27435 13.3895ZM9.68158 6.51251L10.1816 7.37854L10.1817 7.37847L9.68158 6.51251ZM11.0604 4.65547L12.0337 4.88497L11.0604 4.65547ZM11.6774 3.94643L11.4333 2.9767L11.6774 3.94643ZM7.56532 19.9478L7.33993 18.9735L7.56532 19.9478ZM6.65613 19.7091L7.41658 19.0598L6.65613 19.7091ZM11.6793 22.8337L11.4352 23.8034L11.6793 22.8337ZM11.0619 22.1235L12.0355 21.895L11.0619 22.1235ZM17.0624 22.1229L18.0357 22.3522L17.0624 22.1229ZM16.445 22.8327L16.2006 21.863L16.445 22.8327ZM21.4665 19.7106L20.7063 19.061L21.4665 19.7106ZM23.2502 10.1655L24.1938 9.83445L23.2502 10.1655ZM22.9021 11.1468L23.5425 11.9149L22.9021 11.1468ZM21.463 7.06527L20.7031 7.71532L21.463 7.06527ZM7.56819 6.82729L7.34318 7.80164L7.56819 6.82729ZM22.9031 15.6314L22.2631 16.3998L22.9031 15.6314ZM17.0647 4.65523L18.0379 4.42517L17.0647 4.65523ZM14.0624 3.65216L14.0624 4.65216C14.8023 4.65217 15.5194 4.74394 16.2035 4.9162L16.4477 3.94647L16.6918 2.97674C15.8494 2.76461 14.9684 2.65217 14.0625 2.65216L14.0624 3.65216ZM17.0647 4.65523L16.0916 4.88529C16.3306 5.89636 16.9701 6.81493 17.9441 7.37748L18.4443 6.51154L18.9444 5.64559C18.4685 5.37071 18.1559 4.92419 18.0379 4.42517L17.0647 4.65523ZM18.4443 6.51154L17.9443 7.37756C18.8381 7.89364 19.8512 8.01524 20.7804 7.80126L20.556 6.82677L20.3317 5.85227C19.8734 5.95778 19.3809 5.89758 18.9443 5.64551L18.4443 6.51154ZM21.463 7.06527L20.7031 7.71532C21.3982 8.52791 21.9459 9.46838 22.3066 10.4965L23.2502 10.1655L24.1938 9.83445C23.7498 8.56877 23.0762 7.41271 22.2229 6.41522L21.463 7.06527ZM22.9021 11.1468L22.2617 10.3788C21.4018 11.0958 20.8506 12.1779 20.8505 13.3894L21.8505 13.3895L22.8505 13.3896C22.8506 12.7976 23.1178 12.269 23.5425 11.9149L22.9021 11.1468ZM21.8505 13.3895H20.8505C20.8505 14.6019 21.403 15.6834 22.2631 16.3998L22.9031 15.6314L23.543 14.863C23.1178 14.5088 22.8505 13.9809 22.8505 13.3895H21.8505ZM23.2514 16.6124L22.3077 16.2815C21.9475 17.3088 21.4005 18.2486 20.7063 19.061L21.4665 19.7106L22.2268 20.3603C23.0788 19.3633 23.7516 18.2081 24.195 16.9432L23.2514 16.6124ZM20.5581 19.9491L20.7835 18.9749C19.8532 18.7596 18.8385 18.8808 17.9434 19.3974L18.4433 20.2635L18.9432 21.1296C19.3805 20.8772 19.8738 20.8172 20.3326 20.9234L20.5581 19.9491ZM18.4433 20.2635L17.9433 19.3975C16.9679 19.9606 16.3276 20.881 16.089 21.8936L17.0624 22.1229L18.0357 22.3522C18.1535 21.8523 18.4667 21.4047 18.9433 21.1295L18.4433 20.2635ZM16.445 22.8327L16.2006 21.863C15.5167 22.0354 14.8008 22.1277 14.0624 22.1277L14.0624 23.1277L14.0625 24.1277C14.9683 24.1277 15.8483 24.0144 16.6894 23.8024L16.445 22.8327ZM14.0624 23.1277V22.1277C13.3233 22.1277 12.607 22.036 11.9233 21.8639L11.6793 22.8337L11.4352 23.8034C12.2768 24.0153 13.1571 24.1277 14.0624 24.1277V23.1277ZM11.0619 22.1235L12.0355 21.895C11.7978 20.8822 11.1587 19.9613 10.1827 19.3975L9.68256 20.2635L9.18241 21.1294C9.65871 21.4045 9.97099 21.8517 10.0884 22.3519L11.0619 22.1235ZM9.68256 20.2635L10.1826 19.3975C9.28743 18.8807 8.27167 18.758 7.33993 18.9735L7.56532 19.9478L7.79071 20.9221C8.24947 20.816 8.74411 20.8764 9.18256 21.1295L9.68256 20.2635ZM6.65613 19.7091L7.41658 19.0598C6.72326 18.2479 6.17709 17.3084 5.81721 16.2817L4.8735 16.6124L3.92978 16.9432C4.37275 18.207 5.04451 19.3618 5.89567 20.3585L6.65613 19.7091ZM5.22187 15.6314L5.86181 16.3998C6.72204 15.6834 7.27435 14.6019 7.27435 13.3895H6.27435H5.27435C5.27435 13.981 5.00713 14.5088 4.58193 14.8629L5.22187 15.6314ZM6.27435 13.3895L7.27435 13.3894C7.27424 12.1774 6.72259 11.0953 5.86224 10.3785L5.22213 11.1468L4.58202 11.915C5.00699 12.2691 5.2743 12.7976 5.27435 13.3896L6.27435 13.3895ZM4.87378 10.1653L5.81738 10.4964C6.17803 9.46849 6.72562 8.52814 7.42055 7.71563L6.6606 7.06565L5.90066 6.41567C5.04768 7.41295 4.37416 8.56881 3.93017 9.8342L4.87378 10.1653ZM7.56819 6.82729L7.34318 7.80164C8.273 8.01636 9.28695 7.89505 10.1816 7.37854L9.68158 6.51251L9.18158 5.64649C8.74467 5.89874 8.25173 5.95882 7.79319 5.85293L7.56819 6.82729ZM9.68158 6.51251L10.1817 7.37847C11.1565 6.8155 11.7952 5.89618 12.0337 4.88497L11.0604 4.65547L10.0871 4.42597C9.96929 4.92543 9.65713 5.37184 9.18146 5.64656L9.68158 6.51251ZM11.6774 3.94643L11.9216 4.91617C12.6056 4.74394 13.3227 4.65216 14.0624 4.65216V3.65216V2.65216C13.1566 2.65216 12.2756 2.76462 11.4333 2.9767L11.6774 3.94643ZM11.0604 4.65547L12.0337 4.88497C12.0375 4.86883 12.0423 4.85615 12.0463 4.8478C12.0503 4.83937 12.0517 4.839 12.0472 4.84443C12.0425 4.85011 12.0303 4.86341 12.008 4.87824C11.9849 4.89364 11.9553 4.90768 11.9216 4.91617L11.6774 3.94643L11.4333 2.9767C10.6194 3.18161 10.216 3.87894 10.0871 4.42597L11.0604 4.65547ZM5.22213 11.1468L5.86224 10.3785C5.84766 10.3663 5.83638 10.354 5.82888 10.3439C5.8213 10.3337 5.8208 10.3303 5.82307 10.3361C5.82549 10.3423 5.83179 10.3612 5.83314 10.3916C5.83454 10.4235 5.83001 10.4604 5.81738 10.4964L4.87378 10.1653L3.93017 9.8342C3.61537 10.7314 4.10622 11.5186 4.58202 11.915L5.22213 11.1468ZM7.56532 19.9478L7.33993 18.9735C7.32372 18.9773 7.31016 18.9786 7.30084 18.9788C7.29144 18.9789 7.29039 18.9778 7.29715 18.9794C7.30422 18.981 7.32146 18.986 7.34451 18.9994C7.36846 19.0132 7.39407 19.0334 7.41658 19.0598L6.65613 19.7091L5.89567 20.3585C6.44021 20.9962 7.24335 21.0487 7.79071 20.9221L7.56532 19.9478ZM11.6793 22.8337L11.9233 21.8639C11.9571 21.8724 11.9867 21.8865 12.0099 21.9019C12.0321 21.9167 12.0444 21.9301 12.049 21.9357C12.0535 21.9412 12.0521 21.9408 12.0481 21.9323C12.0441 21.9239 12.0393 21.9112 12.0355 21.895L11.0619 22.1235L10.0884 22.3519C10.2169 22.8997 10.6203 23.5983 11.4352 23.8034L11.6793 22.8337ZM17.0624 22.1229L16.089 21.8936C16.0852 21.9098 16.0804 21.9226 16.0764 21.931C16.0723 21.9395 16.0709 21.94 16.0753 21.9346C16.0799 21.929 16.0921 21.9157 16.1143 21.9009C16.1374 21.8856 16.1669 21.8715 16.2006 21.863L16.445 22.8327L16.6894 23.8024C17.5035 23.5972 17.9068 22.8994 18.0357 22.3522L17.0624 22.1229ZM21.4665 19.7106L20.7063 19.061C20.7288 19.0347 20.7544 19.0145 20.7783 19.0007C20.8013 18.9874 20.8186 18.9823 20.8257 18.9807C20.8325 18.9791 20.8316 18.9802 20.8223 18.98C20.8131 18.9799 20.7996 18.9786 20.7835 18.9749L20.5581 19.9491L20.3326 20.9234C20.8802 21.0501 21.6825 20.9972 22.2268 20.3603L21.4665 19.7106ZM23.2502 10.1655L22.3066 10.4965C22.294 10.4606 22.2894 10.4238 22.2908 10.3918C22.2922 10.3614 22.2985 10.3426 22.3009 10.3364C22.3031 10.3305 22.3026 10.334 22.2951 10.3442C22.2876 10.3543 22.2763 10.3667 22.2617 10.3788L22.9021 11.1468L23.5425 11.9149C24.018 11.5184 24.5085 10.7314 24.1938 9.83445L23.2502 10.1655ZM4.8735 16.6124L5.81721 16.2817C5.82982 16.3176 5.83435 16.3544 5.83293 16.3864C5.83159 16.4168 5.82528 16.4357 5.82285 16.4419C5.82056 16.4478 5.82105 16.4443 5.82859 16.4342C5.83605 16.4242 5.84728 16.4119 5.86181 16.3998L5.22187 15.6314L4.58193 14.8629C4.10593 15.2594 3.61543 16.0463 3.92978 16.9432L4.8735 16.6124ZM20.556 6.82677L20.7804 7.80126C20.7965 7.79757 20.8099 7.79628 20.819 7.79615C20.8283 7.79603 20.8292 7.79711 20.8224 7.79552C20.8153 7.79384 20.798 7.7888 20.775 7.77552C20.7511 7.76172 20.7256 7.74158 20.7031 7.71532L21.463 7.06527L22.2229 6.41522C21.6793 5.77976 20.8785 5.72634 20.3317 5.85227L20.556 6.82677ZM6.6606 7.06565L7.42055 7.71563C7.39807 7.74192 7.3725 7.76207 7.3486 7.77587C7.32558 7.78916 7.30833 7.7942 7.3012 7.79587C7.29437 7.79747 7.29531 7.79638 7.30456 7.79651C7.31373 7.79664 7.32713 7.79794 7.34318 7.80164L7.56819 6.82729L7.79319 5.85293C7.24601 5.72657 6.44459 5.77971 5.90066 6.41567L6.6606 7.06565ZM22.9031 15.6314L22.2631 16.3998C22.2776 16.4119 22.2889 16.4242 22.2963 16.4342C22.3038 16.4443 22.3043 16.4477 22.302 16.4418C22.2996 16.4356 22.2933 16.4167 22.2919 16.3863C22.2905 16.3543 22.2951 16.3175 22.3077 16.2815L23.2514 16.6124L24.195 16.9432C24.5095 16.0463 24.019 15.2594 23.543 14.863L22.9031 15.6314ZM16.4477 3.94647L16.2035 4.9162C16.1697 4.90771 16.1402 4.89367 16.117 4.87828C16.0948 4.86347 16.0826 4.85018 16.0779 4.84453C16.0734 4.83912 16.0749 4.83952 16.0789 4.84799C16.0829 4.85638 16.0877 4.8691 16.0916 4.88529L17.0647 4.65523L18.0379 4.42517C17.9087 3.87864 17.5055 3.18162 16.6918 2.97674L16.4477 3.94647Z" fill="#F4F4F4"/>
<circle cx="3.04348" cy="3.04348" r="3.04348" transform="matrix(-1 0 0 1 17.0435 10.9565)" stroke="#F4F4F4" stroke-width="2"/>
</svg>
