<svg width="28" height="28" viewBox="0 0 28 28" fill="none" xmlns="http://www.w3.org/2000/svg">
<path d="M16.2272 5.90009C16.2272 5.07166 15.5556 4.40009 14.7272 4.40009C13.8987 4.40009 13.2272 5.07166 13.2272 5.90009H14.7272H16.2272ZM14.7272 19.9001H16.2272V5.90009H14.7272H13.2272V19.9001H14.7272Z" fill="#F4F4F4"/>
<path d="M22.2416 10.45C22.2416 9.62159 21.5701 8.95001 20.7416 8.95001C19.9132 8.95001 19.2416 9.62159 19.2416 10.45H20.7416H22.2416ZM20.7416 19.9H22.2416V10.45H20.7416H19.2416V19.9H20.7416Z" fill="#F4F4F4"/>
<path d="M3.5 4.5V20.05C3.5 21.7069 4.84315 23.05 6.5 23.05H24.7515" stroke="#F4F4F4" stroke-width="3" stroke-linecap="round"/>
<path d="M10.6136 15.35C10.6136 14.5215 9.94198 13.85 9.11356 13.85C8.28513 13.85 7.61356 14.5215 7.61356 15.35H9.11356H10.6136ZM9.11356 19.9H10.6136V15.35H9.11356H7.61356V19.9H9.11356Z" fill="#F4F4F4"/>
</svg>
